<svg width="502" height="49" viewBox="0 0 502 49" fill="none" xmlns="http://www.w3.org/2000/svg">
<mask id="path-1-outside-1_5_16" maskUnits="userSpaceOnUse" x="0.486328" y="0.757812" width="501" height="48" fill="black">
<rect fill="white" x="0.486328" y="0.757812" width="501" height="48"/>
<path d="M36.793 23.3242V26.0195C36.793 29.2227 36.3926 32.0938 35.5918 34.6328C34.791 37.1719 33.6387 39.3301 32.1348 41.1074C30.6309 42.8848 28.8242 44.2422 26.7148 45.1797C24.625 46.1172 22.2812 46.5859 19.6836 46.5859C17.1641 46.5859 14.8496 46.1172 12.7402 45.1797C10.6504 44.2422 8.83398 42.8848 7.29102 41.1074C5.76758 39.3301 4.58594 37.1719 3.74609 34.6328C2.90625 32.0938 2.48633 29.2227 2.48633 26.0195V23.3242C2.48633 20.1211 2.89648 17.2598 3.7168 14.7402C4.55664 12.2012 5.73828 10.043 7.26172 8.26562C8.78516 6.46875 10.5918 5.10156 12.6816 4.16406C14.791 3.22656 17.1055 2.75781 19.625 2.75781C22.2227 2.75781 24.5664 3.22656 26.6562 4.16406C28.7656 5.10156 30.5723 6.46875 32.0762 8.26562C33.5996 10.043 34.7617 12.2012 35.5625 14.7402C36.3828 17.2598 36.793 20.1211 36.793 23.3242ZM31.1973 26.0195V23.2656C31.1973 20.7266 30.9336 18.4805 30.4062 16.5273C29.8984 14.5742 29.1465 12.9336 28.1504 11.6055C27.1543 10.2773 25.9336 9.27148 24.4883 8.58789C23.0625 7.9043 21.4414 7.5625 19.625 7.5625C17.8672 7.5625 16.2754 7.9043 14.8496 8.58789C13.4434 9.27148 12.2324 10.2773 11.2168 11.6055C10.2207 12.9336 9.44922 14.5742 8.90234 16.5273C8.35547 18.4805 8.08203 20.7266 8.08203 23.2656V26.0195C8.08203 28.5781 8.35547 30.8438 8.90234 32.8164C9.44922 34.7695 10.2305 36.4199 11.2461 37.7676C12.2812 39.0957 13.502 40.1016 14.9082 40.7852C16.334 41.4688 17.9258 41.8105 19.6836 41.8105C21.5195 41.8105 23.1504 41.4688 24.5762 40.7852C26.002 40.1016 27.2031 39.0957 28.1797 37.7676C29.1758 36.4199 29.9277 34.7695 30.4355 32.8164C30.9434 30.8438 31.1973 28.5781 31.1973 26.0195Z"/>
<path d="M71.1289 41.4004V46H49.8008V41.4004H71.1289ZM50.9141 3.34375V46H45.2598V3.34375H50.9141Z"/>
<path d="M103.473 41.4004V46H82.1445V41.4004H103.473ZM83.2578 3.34375V46H77.6035V3.34375H83.2578Z"/>
<path d="M116.012 3.34375V46H110.357V3.34375H116.012Z"/>
<path d="M152.398 33.1094L160.865 3.34375H164.967L162.594 14.916L153.482 46H149.41L152.398 33.1094ZM143.639 3.34375L150.377 32.5234L152.398 46H148.355L138.014 3.34375H143.639ZM175.924 32.4941L182.516 3.34375H188.17L177.857 46H173.814L175.924 32.4941ZM165.582 3.34375L173.814 33.1094L176.803 46H172.73L163.941 14.916L161.539 3.34375H165.582Z"/>
<path d="M221.539 41.4004V46H198.951V41.4004H221.539ZM200.094 3.34375V46H194.439V3.34375H200.094ZM218.551 21.6836V26.2832H198.951V21.6836H218.551ZM221.246 3.34375V7.97266H198.951V3.34375H221.246Z"/>
<path d="M251.275 35.2188C251.275 34.2227 251.119 33.3438 250.807 32.582C250.514 31.8008 249.986 31.0977 249.225 30.4727C248.482 29.8477 247.447 29.252 246.119 28.6855C244.811 28.1191 243.15 27.543 241.139 26.957C239.029 26.332 237.125 25.6387 235.426 24.877C233.727 24.0957 232.271 23.207 231.061 22.2109C229.85 21.2148 228.922 20.0723 228.277 18.7832C227.633 17.4941 227.311 16.0195 227.311 14.3594C227.311 12.6992 227.652 11.166 228.336 9.75977C229.02 8.35352 229.996 7.13281 231.266 6.09766C232.555 5.04297 234.088 4.22266 235.865 3.63672C237.643 3.05078 239.625 2.75781 241.812 2.75781C245.016 2.75781 247.73 3.37305 249.957 4.60352C252.203 5.81445 253.912 7.40625 255.084 9.37891C256.256 11.332 256.842 13.4219 256.842 15.6484H251.217C251.217 14.0469 250.875 12.6309 250.191 11.4004C249.508 10.1504 248.473 9.17383 247.086 8.4707C245.699 7.74805 243.941 7.38672 241.812 7.38672C239.801 7.38672 238.141 7.68945 236.832 8.29492C235.523 8.90039 234.547 9.7207 233.902 10.7559C233.277 11.791 232.965 12.9727 232.965 14.3008C232.965 15.1992 233.15 16.0195 233.521 16.7617C233.912 17.4844 234.508 18.1582 235.309 18.7832C236.129 19.4082 237.164 19.9844 238.414 20.5117C239.684 21.0391 241.197 21.5469 242.955 22.0352C245.377 22.7188 247.467 23.4805 249.225 24.3203C250.982 25.1602 252.428 26.1074 253.561 27.1621C254.713 28.1973 255.562 29.3789 256.109 30.707C256.676 32.0156 256.959 33.5 256.959 35.1602C256.959 36.8984 256.607 38.4707 255.904 39.877C255.201 41.2832 254.195 42.4844 252.887 43.4805C251.578 44.4766 250.006 45.248 248.17 45.7949C246.354 46.3223 244.322 46.5859 242.076 46.5859C240.104 46.5859 238.16 46.3125 236.246 45.7656C234.352 45.2188 232.623 44.3984 231.061 43.3047C229.518 42.2109 228.277 40.8633 227.34 39.2617C226.422 37.6406 225.963 35.7656 225.963 33.6367H231.588C231.588 35.1016 231.871 36.3613 232.438 37.416C233.004 38.4512 233.775 39.3105 234.752 39.9941C235.748 40.6777 236.871 41.1855 238.121 41.5176C239.391 41.8301 240.709 41.9863 242.076 41.9863C244.049 41.9863 245.719 41.7129 247.086 41.166C248.453 40.6191 249.488 39.8379 250.191 38.8223C250.914 37.8066 251.275 36.6055 251.275 35.2188Z"/>
<path d="M286.9 35.2188C286.9 34.2227 286.744 33.3438 286.432 32.582C286.139 31.8008 285.611 31.0977 284.85 30.4727C284.107 29.8477 283.072 29.252 281.744 28.6855C280.436 28.1191 278.775 27.543 276.764 26.957C274.654 26.332 272.75 25.6387 271.051 24.877C269.352 24.0957 267.896 23.207 266.686 22.2109C265.475 21.2148 264.547 20.0723 263.902 18.7832C263.258 17.4941 262.936 16.0195 262.936 14.3594C262.936 12.6992 263.277 11.166 263.961 9.75977C264.645 8.35352 265.621 7.13281 266.891 6.09766C268.18 5.04297 269.713 4.22266 271.49 3.63672C273.268 3.05078 275.25 2.75781 277.438 2.75781C280.641 2.75781 283.355 3.37305 285.582 4.60352C287.828 5.81445 289.537 7.40625 290.709 9.37891C291.881 11.332 292.467 13.4219 292.467 15.6484H286.842C286.842 14.0469 286.5 12.6309 285.816 11.4004C285.133 10.1504 284.098 9.17383 282.711 8.4707C281.324 7.74805 279.566 7.38672 277.438 7.38672C275.426 7.38672 273.766 7.68945 272.457 8.29492C271.148 8.90039 270.172 9.7207 269.527 10.7559C268.902 11.791 268.59 12.9727 268.59 14.3008C268.59 15.1992 268.775 16.0195 269.146 16.7617C269.537 17.4844 270.133 18.1582 270.934 18.7832C271.754 19.4082 272.789 19.9844 274.039 20.5117C275.309 21.0391 276.822 21.5469 278.58 22.0352C281.002 22.7188 283.092 23.4805 284.85 24.3203C286.607 25.1602 288.053 26.1074 289.186 27.1621C290.338 28.1973 291.188 29.3789 291.734 30.707C292.301 32.0156 292.584 33.5 292.584 35.1602C292.584 36.8984 292.232 38.4707 291.529 39.877C290.826 41.2832 289.82 42.4844 288.512 43.4805C287.203 44.4766 285.631 45.248 283.795 45.7949C281.979 46.3223 279.947 46.5859 277.701 46.5859C275.729 46.5859 273.785 46.3125 271.871 45.7656C269.977 45.2188 268.248 44.3984 266.686 43.3047C265.143 42.2109 263.902 40.8633 262.965 39.2617C262.047 37.6406 261.588 35.7656 261.588 33.6367H267.213C267.213 35.1016 267.496 36.3613 268.062 37.416C268.629 38.4512 269.4 39.3105 270.377 39.9941C271.373 40.6777 272.496 41.1855 273.746 41.5176C275.016 41.8301 276.334 41.9863 277.701 41.9863C279.674 41.9863 281.344 41.7129 282.711 41.166C284.078 40.6191 285.113 39.8379 285.816 38.8223C286.539 37.8066 286.9 36.6055 286.9 35.2188Z"/>
<path d="M326.891 41.4004V46H304.303V41.4004H326.891ZM305.445 3.34375V46H299.791V3.34375H305.445ZM323.902 21.6836V26.2832H304.303V21.6836H323.902ZM326.598 3.34375V7.97266H304.303V3.34375H326.598Z"/>
<path d="M359.762 41.4004V46H338.434V41.4004H359.762ZM339.547 3.34375V46H333.893V3.34375H339.547Z"/>
<path d="M372.301 3.34375V46H366.646V3.34375H372.301Z"/>
<path d="M415.396 3.34375V46H409.713L388.238 13.0996V46H382.584V3.34375H388.238L409.801 36.332V3.34375H415.396Z"/>
<path d="M456.939 24.7598V40.375C456.412 41.1562 455.572 42.0352 454.42 43.0117C453.268 43.9688 451.676 44.8086 449.645 45.5312C447.633 46.2344 445.035 46.5859 441.852 46.5859C439.254 46.5859 436.861 46.1367 434.674 45.2383C432.506 44.3203 430.621 42.9922 429.02 41.2539C427.438 39.4961 426.207 37.3672 425.328 34.8672C424.469 32.3477 424.039 29.4961 424.039 26.3125V23.002C424.039 19.8184 424.41 16.9766 425.152 14.4766C425.914 11.9766 427.027 9.85742 428.492 8.11914C429.957 6.36133 431.754 5.0332 433.883 4.13477C436.012 3.2168 438.453 2.75781 441.207 2.75781C444.469 2.75781 447.193 3.32422 449.381 4.45703C451.588 5.57031 453.307 7.11328 454.537 9.08594C455.787 11.0586 456.588 13.3047 456.939 15.8242H451.285C451.031 14.2812 450.523 12.875 449.762 11.6055C449.02 10.3359 447.955 9.32031 446.568 8.55859C445.182 7.77734 443.395 7.38672 441.207 7.38672C439.234 7.38672 437.525 7.74805 436.08 8.4707C434.635 9.19336 433.443 10.2285 432.506 11.5762C431.568 12.9238 430.865 14.5547 430.396 16.4688C429.947 18.3828 429.723 20.541 429.723 22.9434V26.3125C429.723 28.7734 430.006 30.9707 430.572 32.9043C431.158 34.8379 431.988 36.4883 433.062 37.8555C434.137 39.2031 435.416 40.2285 436.9 40.9316C438.404 41.6348 440.064 41.9863 441.881 41.9863C443.893 41.9863 445.523 41.8203 446.773 41.4883C448.023 41.1367 449 40.7266 449.703 40.2578C450.406 39.7695 450.943 39.3105 451.314 38.8809V29.3301H441.441V24.7598H456.939Z"/>
<path d="M494.176 21.6836V26.2832H471.09V21.6836H494.176ZM471.969 3.34375V46H466.314V3.34375H471.969ZM499.098 3.34375V46H493.473V3.34375H499.098Z"/>
</mask>
<path d="M36.793 23.3242V26.0195C36.793 29.2227 36.3926 32.0938 35.5918 34.6328C34.791 37.1719 33.6387 39.3301 32.1348 41.1074C30.6309 42.8848 28.8242 44.2422 26.7148 45.1797C24.625 46.1172 22.2812 46.5859 19.6836 46.5859C17.1641 46.5859 14.8496 46.1172 12.7402 45.1797C10.6504 44.2422 8.83398 42.8848 7.29102 41.1074C5.76758 39.3301 4.58594 37.1719 3.74609 34.6328C2.90625 32.0938 2.48633 29.2227 2.48633 26.0195V23.3242C2.48633 20.1211 2.89648 17.2598 3.7168 14.7402C4.55664 12.2012 5.73828 10.043 7.26172 8.26562C8.78516 6.46875 10.5918 5.10156 12.6816 4.16406C14.791 3.22656 17.1055 2.75781 19.625 2.75781C22.2227 2.75781 24.5664 3.22656 26.6562 4.16406C28.7656 5.10156 30.5723 6.46875 32.0762 8.26562C33.5996 10.043 34.7617 12.2012 35.5625 14.7402C36.3828 17.2598 36.793 20.1211 36.793 23.3242ZM31.1973 26.0195V23.2656C31.1973 20.7266 30.9336 18.4805 30.4062 16.5273C29.8984 14.5742 29.1465 12.9336 28.1504 11.6055C27.1543 10.2773 25.9336 9.27148 24.4883 8.58789C23.0625 7.9043 21.4414 7.5625 19.625 7.5625C17.8672 7.5625 16.2754 7.9043 14.8496 8.58789C13.4434 9.27148 12.2324 10.2773 11.2168 11.6055C10.2207 12.9336 9.44922 14.5742 8.90234 16.5273C8.35547 18.4805 8.08203 20.7266 8.08203 23.2656V26.0195C8.08203 28.5781 8.35547 30.8438 8.90234 32.8164C9.44922 34.7695 10.2305 36.4199 11.2461 37.7676C12.2812 39.0957 13.502 40.1016 14.9082 40.7852C16.334 41.4688 17.9258 41.8105 19.6836 41.8105C21.5195 41.8105 23.1504 41.4688 24.5762 40.7852C26.002 40.1016 27.2031 39.0957 28.1797 37.7676C29.1758 36.4199 29.9277 34.7695 30.4355 32.8164C30.9434 30.8438 31.1973 28.5781 31.1973 26.0195Z" stroke="white" stroke-width="4" mask="url(#path-1-outside-1_5_16)"/>
<path d="M71.1289 41.4004V46H49.8008V41.4004H71.1289ZM50.9141 3.34375V46H45.2598V3.34375H50.9141Z" stroke="white" stroke-width="4" mask="url(#path-1-outside-1_5_16)"/>
<path d="M103.473 41.4004V46H82.1445V41.4004H103.473ZM83.2578 3.34375V46H77.6035V3.34375H83.2578Z" stroke="white" stroke-width="4" mask="url(#path-1-outside-1_5_16)"/>
<path d="M116.012 3.34375V46H110.357V3.34375H116.012Z" stroke="white" stroke-width="4" mask="url(#path-1-outside-1_5_16)"/>
<path d="M152.398 33.1094L160.865 3.34375H164.967L162.594 14.916L153.482 46H149.41L152.398 33.1094ZM143.639 3.34375L150.377 32.5234L152.398 46H148.355L138.014 3.34375H143.639ZM175.924 32.4941L182.516 3.34375H188.17L177.857 46H173.814L175.924 32.4941ZM165.582 3.34375L173.814 33.1094L176.803 46H172.73L163.941 14.916L161.539 3.34375H165.582Z" stroke="white" stroke-width="4" mask="url(#path-1-outside-1_5_16)"/>
<path d="M221.539 41.4004V46H198.951V41.4004H221.539ZM200.094 3.34375V46H194.439V3.34375H200.094ZM218.551 21.6836V26.2832H198.951V21.6836H218.551ZM221.246 3.34375V7.97266H198.951V3.34375H221.246Z" stroke="white" stroke-width="4" mask="url(#path-1-outside-1_5_16)"/>
<path d="M251.275 35.2188C251.275 34.2227 251.119 33.3438 250.807 32.582C250.514 31.8008 249.986 31.0977 249.225 30.4727C248.482 29.8477 247.447 29.252 246.119 28.6855C244.811 28.1191 243.15 27.543 241.139 26.957C239.029 26.332 237.125 25.6387 235.426 24.877C233.727 24.0957 232.271 23.207 231.061 22.2109C229.85 21.2148 228.922 20.0723 228.277 18.7832C227.633 17.4941 227.311 16.0195 227.311 14.3594C227.311 12.6992 227.652 11.166 228.336 9.75977C229.02 8.35352 229.996 7.13281 231.266 6.09766C232.555 5.04297 234.088 4.22266 235.865 3.63672C237.643 3.05078 239.625 2.75781 241.812 2.75781C245.016 2.75781 247.73 3.37305 249.957 4.60352C252.203 5.81445 253.912 7.40625 255.084 9.37891C256.256 11.332 256.842 13.4219 256.842 15.6484H251.217C251.217 14.0469 250.875 12.6309 250.191 11.4004C249.508 10.1504 248.473 9.17383 247.086 8.4707C245.699 7.74805 243.941 7.38672 241.812 7.38672C239.801 7.38672 238.141 7.68945 236.832 8.29492C235.523 8.90039 234.547 9.7207 233.902 10.7559C233.277 11.791 232.965 12.9727 232.965 14.3008C232.965 15.1992 233.15 16.0195 233.521 16.7617C233.912 17.4844 234.508 18.1582 235.309 18.7832C236.129 19.4082 237.164 19.9844 238.414 20.5117C239.684 21.0391 241.197 21.5469 242.955 22.0352C245.377 22.7188 247.467 23.4805 249.225 24.3203C250.982 25.1602 252.428 26.1074 253.561 27.1621C254.713 28.1973 255.562 29.3789 256.109 30.707C256.676 32.0156 256.959 33.5 256.959 35.1602C256.959 36.8984 256.607 38.4707 255.904 39.877C255.201 41.2832 254.195 42.4844 252.887 43.4805C251.578 44.4766 250.006 45.248 248.17 45.7949C246.354 46.3223 244.322 46.5859 242.076 46.5859C240.104 46.5859 238.16 46.3125 236.246 45.7656C234.352 45.2188 232.623 44.3984 231.061 43.3047C229.518 42.2109 228.277 40.8633 227.34 39.2617C226.422 37.6406 225.963 35.7656 225.963 33.6367H231.588C231.588 35.1016 231.871 36.3613 232.438 37.416C233.004 38.4512 233.775 39.3105 234.752 39.9941C235.748 40.6777 236.871 41.1855 238.121 41.5176C239.391 41.8301 240.709 41.9863 242.076 41.9863C244.049 41.9863 245.719 41.7129 247.086 41.166C248.453 40.6191 249.488 39.8379 250.191 38.8223C250.914 37.8066 251.275 36.6055 251.275 35.2188Z" stroke="white" stroke-width="4" mask="url(#path-1-outside-1_5_16)"/>
<path d="M286.9 35.2188C286.9 34.2227 286.744 33.3438 286.432 32.582C286.139 31.8008 285.611 31.0977 284.85 30.4727C284.107 29.8477 283.072 29.252 281.744 28.6855C280.436 28.1191 278.775 27.543 276.764 26.957C274.654 26.332 272.75 25.6387 271.051 24.877C269.352 24.0957 267.896 23.207 266.686 22.2109C265.475 21.2148 264.547 20.0723 263.902 18.7832C263.258 17.4941 262.936 16.0195 262.936 14.3594C262.936 12.6992 263.277 11.166 263.961 9.75977C264.645 8.35352 265.621 7.13281 266.891 6.09766C268.18 5.04297 269.713 4.22266 271.49 3.63672C273.268 3.05078 275.25 2.75781 277.438 2.75781C280.641 2.75781 283.355 3.37305 285.582 4.60352C287.828 5.81445 289.537 7.40625 290.709 9.37891C291.881 11.332 292.467 13.4219 292.467 15.6484H286.842C286.842 14.0469 286.5 12.6309 285.816 11.4004C285.133 10.1504 284.098 9.17383 282.711 8.4707C281.324 7.74805 279.566 7.38672 277.438 7.38672C275.426 7.38672 273.766 7.68945 272.457 8.29492C271.148 8.90039 270.172 9.7207 269.527 10.7559C268.902 11.791 268.59 12.9727 268.59 14.3008C268.59 15.1992 268.775 16.0195 269.146 16.7617C269.537 17.4844 270.133 18.1582 270.934 18.7832C271.754 19.4082 272.789 19.9844 274.039 20.5117C275.309 21.0391 276.822 21.5469 278.58 22.0352C281.002 22.7188 283.092 23.4805 284.85 24.3203C286.607 25.1602 288.053 26.1074 289.186 27.1621C290.338 28.1973 291.188 29.3789 291.734 30.707C292.301 32.0156 292.584 33.5 292.584 35.1602C292.584 36.8984 292.232 38.4707 291.529 39.877C290.826 41.2832 289.82 42.4844 288.512 43.4805C287.203 44.4766 285.631 45.248 283.795 45.7949C281.979 46.3223 279.947 46.5859 277.701 46.5859C275.729 46.5859 273.785 46.3125 271.871 45.7656C269.977 45.2188 268.248 44.3984 266.686 43.3047C265.143 42.2109 263.902 40.8633 262.965 39.2617C262.047 37.6406 261.588 35.7656 261.588 33.6367H267.213C267.213 35.1016 267.496 36.3613 268.062 37.416C268.629 38.4512 269.4 39.3105 270.377 39.9941C271.373 40.6777 272.496 41.1855 273.746 41.5176C275.016 41.8301 276.334 41.9863 277.701 41.9863C279.674 41.9863 281.344 41.7129 282.711 41.166C284.078 40.6191 285.113 39.8379 285.816 38.8223C286.539 37.8066 286.9 36.6055 286.9 35.2188Z" stroke="white" stroke-width="4" mask="url(#path-1-outside-1_5_16)"/>
<path d="M326.891 41.4004V46H304.303V41.4004H326.891ZM305.445 3.34375V46H299.791V3.34375H305.445ZM323.902 21.6836V26.2832H304.303V21.6836H323.902ZM326.598 3.34375V7.97266H304.303V3.34375H326.598Z" stroke="white" stroke-width="4" mask="url(#path-1-outside-1_5_16)"/>
<path d="M359.762 41.4004V46H338.434V41.4004H359.762ZM339.547 3.34375V46H333.893V3.34375H339.547Z" stroke="white" stroke-width="4" mask="url(#path-1-outside-1_5_16)"/>
<path d="M372.301 3.34375V46H366.646V3.34375H372.301Z" stroke="white" stroke-width="4" mask="url(#path-1-outside-1_5_16)"/>
<path d="M415.396 3.34375V46H409.713L388.238 13.0996V46H382.584V3.34375H388.238L409.801 36.332V3.34375H415.396Z" stroke="white" stroke-width="4" mask="url(#path-1-outside-1_5_16)"/>
<path d="M456.939 24.7598V40.375C456.412 41.1562 455.572 42.0352 454.42 43.0117C453.268 43.9688 451.676 44.8086 449.645 45.5312C447.633 46.2344 445.035 46.5859 441.852 46.5859C439.254 46.5859 436.861 46.1367 434.674 45.2383C432.506 44.3203 430.621 42.9922 429.02 41.2539C427.438 39.4961 426.207 37.3672 425.328 34.8672C424.469 32.3477 424.039 29.4961 424.039 26.3125V23.002C424.039 19.8184 424.41 16.9766 425.152 14.4766C425.914 11.9766 427.027 9.85742 428.492 8.11914C429.957 6.36133 431.754 5.0332 433.883 4.13477C436.012 3.2168 438.453 2.75781 441.207 2.75781C444.469 2.75781 447.193 3.32422 449.381 4.45703C451.588 5.57031 453.307 7.11328 454.537 9.08594C455.787 11.0586 456.588 13.3047 456.939 15.8242H451.285C451.031 14.2812 450.523 12.875 449.762 11.6055C449.02 10.3359 447.955 9.32031 446.568 8.55859C445.182 7.77734 443.395 7.38672 441.207 7.38672C439.234 7.38672 437.525 7.74805 436.08 8.4707C434.635 9.19336 433.443 10.2285 432.506 11.5762C431.568 12.9238 430.865 14.5547 430.396 16.4688C429.947 18.3828 429.723 20.541 429.723 22.9434V26.3125C429.723 28.7734 430.006 30.9707 430.572 32.9043C431.158 34.8379 431.988 36.4883 433.062 37.8555C434.137 39.2031 435.416 40.2285 436.9 40.9316C438.404 41.6348 440.064 41.9863 441.881 41.9863C443.893 41.9863 445.523 41.8203 446.773 41.4883C448.023 41.1367 449 40.7266 449.703 40.2578C450.406 39.7695 450.943 39.3105 451.314 38.8809V29.3301H441.441V24.7598H456.939Z" stroke="white" stroke-width="4" mask="url(#path-1-outside-1_5_16)"/>
<path d="M494.176 21.6836V26.2832H471.09V21.6836H494.176ZM471.969 3.34375V46H466.314V3.34375H471.969ZM499.098 3.34375V46H493.473V3.34375H499.098Z" stroke="white" stroke-width="4" mask="url(#path-1-outside-1_5_16)"/>
</svg>
