<svg width="334" height="32" viewBox="0 0 334 32" fill="none" xmlns="http://www.w3.org/2000/svg">
<mask id="path-1-outside-1_3_3" maskUnits="userSpaceOnUse" x="0.324219" y="0.171875" width="334" height="32" fill="black">
<rect fill="white" x="0.324219" y="0.171875" width="334" height="32"/>
<path d="M24.1953 14.8828V16.6797C24.1953 18.8151 23.9284 20.7292 23.3945 22.4219C22.8607 24.1146 22.0924 25.5534 21.0898 26.7383C20.0872 27.9232 18.8828 28.8281 17.4766 29.4531C16.0833 30.0781 14.5208 30.3906 12.7891 30.3906C11.1094 30.3906 9.56641 30.0781 8.16016 29.4531C6.76693 28.8281 5.55599 27.9232 4.52734 26.7383C3.51172 25.5534 2.72396 24.1146 2.16406 22.4219C1.60417 20.7292 1.32422 18.8151 1.32422 16.6797V14.8828C1.32422 12.7474 1.59766 10.8398 2.14453 9.16016C2.70443 7.46745 3.49219 6.02865 4.50781 4.84375C5.52344 3.64583 6.72786 2.73438 8.12109 2.10938C9.52734 1.48438 11.0703 1.17188 12.75 1.17188C14.4818 1.17188 16.0443 1.48438 17.4375 2.10938C18.8438 2.73438 20.0482 3.64583 21.0508 4.84375C22.0664 6.02865 22.8411 7.46745 23.375 9.16016C23.9219 10.8398 24.1953 12.7474 24.1953 14.8828ZM20.4648 16.6797V14.8438C20.4648 13.151 20.2891 11.6536 19.9375 10.3516C19.599 9.04948 19.0977 7.95573 18.4336 7.07031C17.7695 6.1849 16.9557 5.51432 15.9922 5.05859C15.0417 4.60286 13.9609 4.375 12.75 4.375C11.5781 4.375 10.5169 4.60286 9.56641 5.05859C8.62891 5.51432 7.82161 6.1849 7.14453 7.07031C6.48047 7.95573 5.96615 9.04948 5.60156 10.3516C5.23698 11.6536 5.05469 13.151 5.05469 14.8438V16.6797C5.05469 18.3854 5.23698 19.8958 5.60156 21.2109C5.96615 22.513 6.48698 23.6133 7.16406 24.5117C7.85417 25.3971 8.66797 26.0677 9.60547 26.5234C10.556 26.9792 11.6172 27.207 12.7891 27.207C14.013 27.207 15.1003 26.9792 16.0508 26.5234C17.0013 26.0677 17.8021 25.3971 18.4531 24.5117C19.1172 23.6133 19.6185 22.513 19.957 21.2109C20.2956 19.8958 20.4648 18.3854 20.4648 16.6797Z"/>
<path d="M47.0859 26.9336V30H32.8672V26.9336H47.0859ZM33.6094 1.5625V30H29.8398V1.5625H33.6094Z"/>
<path d="M68.6484 26.9336V30H54.4297V26.9336H68.6484ZM55.1719 1.5625V30H51.4023V1.5625H55.1719Z"/>
<path d="M77.0078 1.5625V30H73.2383V1.5625H77.0078Z"/>
<path d="M101.266 21.4062L106.91 1.5625H109.645L108.062 9.27734L101.988 30H99.2734L101.266 21.4062ZM95.4258 1.5625L99.918 21.0156L101.266 30H98.5703L91.6758 1.5625H95.4258ZM116.949 20.9961L121.344 1.5625H125.113L118.238 30H115.543L116.949 20.9961ZM110.055 1.5625L115.543 21.4062L117.535 30H114.82L108.961 9.27734L107.359 1.5625H110.055Z"/>
<path d="M147.359 26.9336V30H132.301V26.9336H147.359ZM133.062 1.5625V30H129.293V1.5625H133.062ZM145.367 13.7891V16.8555H132.301V13.7891H145.367ZM147.164 1.5625V4.64844H132.301V1.5625H147.164Z"/>
<path d="M167.184 22.8125C167.184 22.1484 167.079 21.5625 166.871 21.0547C166.676 20.5339 166.324 20.0651 165.816 19.6484C165.322 19.2318 164.632 18.8346 163.746 18.457C162.874 18.0794 161.767 17.6953 160.426 17.3047C159.02 16.888 157.75 16.4258 156.617 15.918C155.484 15.3971 154.514 14.8047 153.707 14.1406C152.9 13.4766 152.281 12.7148 151.852 11.8555C151.422 10.9961 151.207 10.013 151.207 8.90625C151.207 7.79948 151.435 6.77734 151.891 5.83984C152.346 4.90234 152.997 4.08854 153.844 3.39844C154.703 2.69531 155.725 2.14844 156.91 1.75781C158.095 1.36719 159.417 1.17188 160.875 1.17188C163.01 1.17188 164.82 1.58203 166.305 2.40234C167.802 3.20964 168.941 4.27083 169.723 5.58594C170.504 6.88802 170.895 8.28125 170.895 9.76562H167.145C167.145 8.69792 166.917 7.75391 166.461 6.93359C166.005 6.10026 165.315 5.44922 164.391 4.98047C163.466 4.4987 162.294 4.25781 160.875 4.25781C159.534 4.25781 158.427 4.45964 157.555 4.86328C156.682 5.26693 156.031 5.8138 155.602 6.50391C155.185 7.19401 154.977 7.98177 154.977 8.86719C154.977 9.46615 155.1 10.013 155.348 10.5078C155.608 10.9896 156.005 11.4388 156.539 11.8555C157.086 12.2721 157.776 12.6562 158.609 13.0078C159.456 13.3594 160.465 13.6979 161.637 14.0234C163.251 14.4792 164.645 14.987 165.816 15.5469C166.988 16.1068 167.952 16.7383 168.707 17.4414C169.475 18.1315 170.042 18.9193 170.406 19.8047C170.784 20.6771 170.973 21.6667 170.973 22.7734C170.973 23.9323 170.738 24.9805 170.27 25.918C169.801 26.8555 169.13 27.6562 168.258 28.3203C167.385 28.9844 166.337 29.4987 165.113 29.8633C163.902 30.2148 162.548 30.3906 161.051 30.3906C159.736 30.3906 158.44 30.2083 157.164 29.8438C155.901 29.4792 154.749 28.9323 153.707 28.2031C152.678 27.474 151.852 26.5755 151.227 25.5078C150.615 24.4271 150.309 23.1771 150.309 21.7578H154.059C154.059 22.7344 154.247 23.5742 154.625 24.2773C155.003 24.9674 155.517 25.5404 156.168 25.9961C156.832 26.4518 157.581 26.7904 158.414 27.0117C159.26 27.2201 160.139 27.3242 161.051 27.3242C162.366 27.3242 163.479 27.1419 164.391 26.7773C165.302 26.4128 165.992 25.8919 166.461 25.2148C166.943 24.5378 167.184 23.737 167.184 22.8125Z"/>
<path d="M190.934 22.8125C190.934 22.1484 190.829 21.5625 190.621 21.0547C190.426 20.5339 190.074 20.0651 189.566 19.6484C189.072 19.2318 188.382 18.8346 187.496 18.457C186.624 18.0794 185.517 17.6953 184.176 17.3047C182.77 16.888 181.5 16.4258 180.367 15.918C179.234 15.3971 178.264 14.8047 177.457 14.1406C176.65 13.4766 176.031 12.7148 175.602 11.8555C175.172 10.9961 174.957 10.013 174.957 8.90625C174.957 7.79948 175.185 6.77734 175.641 5.83984C176.096 4.90234 176.747 4.08854 177.594 3.39844C178.453 2.69531 179.475 2.14844 180.66 1.75781C181.845 1.36719 183.167 1.17188 184.625 1.17188C186.76 1.17188 188.57 1.58203 190.055 2.40234C191.552 3.20964 192.691 4.27083 193.473 5.58594C194.254 6.88802 194.645 8.28125 194.645 9.76562H190.895C190.895 8.69792 190.667 7.75391 190.211 6.93359C189.755 6.10026 189.065 5.44922 188.141 4.98047C187.216 4.4987 186.044 4.25781 184.625 4.25781C183.284 4.25781 182.177 4.45964 181.305 4.86328C180.432 5.26693 179.781 5.8138 179.352 6.50391C178.935 7.19401 178.727 7.98177 178.727 8.86719C178.727 9.46615 178.85 10.013 179.098 10.5078C179.358 10.9896 179.755 11.4388 180.289 11.8555C180.836 12.2721 181.526 12.6562 182.359 13.0078C183.206 13.3594 184.215 13.6979 185.387 14.0234C187.001 14.4792 188.395 14.987 189.566 15.5469C190.738 16.1068 191.702 16.7383 192.457 17.4414C193.225 18.1315 193.792 18.9193 194.156 19.8047C194.534 20.6771 194.723 21.6667 194.723 22.7734C194.723 23.9323 194.488 24.9805 194.02 25.918C193.551 26.8555 192.88 27.6562 192.008 28.3203C191.135 28.9844 190.087 29.4987 188.863 29.8633C187.652 30.2148 186.298 30.3906 184.801 30.3906C183.486 30.3906 182.19 30.2083 180.914 29.8438C179.651 29.4792 178.499 28.9323 177.457 28.2031C176.428 27.474 175.602 26.5755 174.977 25.5078C174.365 24.4271 174.059 23.1771 174.059 21.7578H177.809C177.809 22.7344 177.997 23.5742 178.375 24.2773C178.753 24.9674 179.267 25.5404 179.918 25.9961C180.582 26.4518 181.331 26.7904 182.164 27.0117C183.01 27.2201 183.889 27.3242 184.801 27.3242C186.116 27.3242 187.229 27.1419 188.141 26.7773C189.052 26.4128 189.742 25.8919 190.211 25.2148C190.693 24.5378 190.934 23.737 190.934 22.8125Z"/>
<path d="M217.594 26.9336V30H202.535V26.9336H217.594ZM203.297 1.5625V30H199.527V1.5625H203.297ZM215.602 13.7891V16.8555H202.535V13.7891H215.602ZM217.398 1.5625V4.64844H202.535V1.5625H217.398Z"/>
<path d="M239.508 26.9336V30H225.289V26.9336H239.508ZM226.031 1.5625V30H222.262V1.5625H226.031Z"/>
<path d="M247.867 1.5625V30H244.098V1.5625H247.867Z"/>
<path d="M276.598 1.5625V30H272.809L258.492 8.06641V30H254.723V1.5625H258.492L272.867 23.5547V1.5625H276.598Z"/>
<path d="M304.293 15.8398V26.25C303.941 26.7708 303.382 27.3568 302.613 28.0078C301.845 28.6458 300.784 29.2057 299.43 29.6875C298.089 30.1562 296.357 30.3906 294.234 30.3906C292.503 30.3906 290.908 30.0911 289.449 29.4922C288.004 28.8802 286.747 27.9948 285.68 26.8359C284.625 25.6641 283.805 24.2448 283.219 22.5781C282.646 20.8984 282.359 18.9974 282.359 16.875V14.668C282.359 12.5456 282.607 10.651 283.102 8.98438C283.609 7.31771 284.352 5.90495 285.328 4.74609C286.305 3.57422 287.503 2.6888 288.922 2.08984C290.341 1.47786 291.969 1.17188 293.805 1.17188C295.979 1.17188 297.796 1.54948 299.254 2.30469C300.725 3.04688 301.871 4.07552 302.691 5.39062C303.525 6.70573 304.059 8.20312 304.293 9.88281H300.523C300.354 8.85417 300.016 7.91667 299.508 7.07031C299.013 6.22396 298.303 5.54688 297.379 5.03906C296.454 4.51823 295.263 4.25781 293.805 4.25781C292.49 4.25781 291.35 4.4987 290.387 4.98047C289.423 5.46224 288.629 6.15234 288.004 7.05078C287.379 7.94922 286.91 9.03646 286.598 10.3125C286.298 11.5885 286.148 13.0273 286.148 14.6289V16.875C286.148 18.5156 286.337 19.9805 286.715 21.2695C287.105 22.5586 287.659 23.6589 288.375 24.5703C289.091 25.4688 289.944 26.1523 290.934 26.6211C291.936 27.0898 293.043 27.3242 294.254 27.3242C295.595 27.3242 296.682 27.2135 297.516 26.9922C298.349 26.7578 299 26.4844 299.469 26.1719C299.938 25.8464 300.296 25.5404 300.543 25.2539V18.8867H293.961V15.8398H304.293Z"/>
<path d="M329.117 13.7891V16.8555H313.727V13.7891H329.117ZM314.312 1.5625V30H310.543V1.5625H314.312ZM332.398 1.5625V30H328.648V1.5625H332.398Z"/>
</mask>
<path d="M24.1953 14.8828V16.6797C24.1953 18.8151 23.9284 20.7292 23.3945 22.4219C22.8607 24.1146 22.0924 25.5534 21.0898 26.7383C20.0872 27.9232 18.8828 28.8281 17.4766 29.4531C16.0833 30.0781 14.5208 30.3906 12.7891 30.3906C11.1094 30.3906 9.56641 30.0781 8.16016 29.4531C6.76693 28.8281 5.55599 27.9232 4.52734 26.7383C3.51172 25.5534 2.72396 24.1146 2.16406 22.4219C1.60417 20.7292 1.32422 18.8151 1.32422 16.6797V14.8828C1.32422 12.7474 1.59766 10.8398 2.14453 9.16016C2.70443 7.46745 3.49219 6.02865 4.50781 4.84375C5.52344 3.64583 6.72786 2.73438 8.12109 2.10938C9.52734 1.48438 11.0703 1.17188 12.75 1.17188C14.4818 1.17188 16.0443 1.48438 17.4375 2.10938C18.8438 2.73438 20.0482 3.64583 21.0508 4.84375C22.0664 6.02865 22.8411 7.46745 23.375 9.16016C23.9219 10.8398 24.1953 12.7474 24.1953 14.8828ZM20.4648 16.6797V14.8438C20.4648 13.151 20.2891 11.6536 19.9375 10.3516C19.599 9.04948 19.0977 7.95573 18.4336 7.07031C17.7695 6.1849 16.9557 5.51432 15.9922 5.05859C15.0417 4.60286 13.9609 4.375 12.75 4.375C11.5781 4.375 10.5169 4.60286 9.56641 5.05859C8.62891 5.51432 7.82161 6.1849 7.14453 7.07031C6.48047 7.95573 5.96615 9.04948 5.60156 10.3516C5.23698 11.6536 5.05469 13.151 5.05469 14.8438V16.6797C5.05469 18.3854 5.23698 19.8958 5.60156 21.2109C5.96615 22.513 6.48698 23.6133 7.16406 24.5117C7.85417 25.3971 8.66797 26.0677 9.60547 26.5234C10.556 26.9792 11.6172 27.207 12.7891 27.207C14.013 27.207 15.1003 26.9792 16.0508 26.5234C17.0013 26.0677 17.8021 25.3971 18.4531 24.5117C19.1172 23.6133 19.6185 22.513 19.957 21.2109C20.2956 19.8958 20.4648 18.3854 20.4648 16.6797Z" stroke="white" stroke-width="2" mask="url(#path-1-outside-1_3_3)"/>
<path d="M47.0859 26.9336V30H32.8672V26.9336H47.0859ZM33.6094 1.5625V30H29.8398V1.5625H33.6094Z" stroke="white" stroke-width="2" mask="url(#path-1-outside-1_3_3)"/>
<path d="M68.6484 26.9336V30H54.4297V26.9336H68.6484ZM55.1719 1.5625V30H51.4023V1.5625H55.1719Z" stroke="white" stroke-width="2" mask="url(#path-1-outside-1_3_3)"/>
<path d="M77.0078 1.5625V30H73.2383V1.5625H77.0078Z" stroke="white" stroke-width="2" mask="url(#path-1-outside-1_3_3)"/>
<path d="M101.266 21.4062L106.91 1.5625H109.645L108.062 9.27734L101.988 30H99.2734L101.266 21.4062ZM95.4258 1.5625L99.918 21.0156L101.266 30H98.5703L91.6758 1.5625H95.4258ZM116.949 20.9961L121.344 1.5625H125.113L118.238 30H115.543L116.949 20.9961ZM110.055 1.5625L115.543 21.4062L117.535 30H114.82L108.961 9.27734L107.359 1.5625H110.055Z" stroke="white" stroke-width="2" mask="url(#path-1-outside-1_3_3)"/>
<path d="M147.359 26.9336V30H132.301V26.9336H147.359ZM133.062 1.5625V30H129.293V1.5625H133.062ZM145.367 13.7891V16.8555H132.301V13.7891H145.367ZM147.164 1.5625V4.64844H132.301V1.5625H147.164Z" stroke="white" stroke-width="2" mask="url(#path-1-outside-1_3_3)"/>
<path d="M167.184 22.8125C167.184 22.1484 167.079 21.5625 166.871 21.0547C166.676 20.5339 166.324 20.0651 165.816 19.6484C165.322 19.2318 164.632 18.8346 163.746 18.457C162.874 18.0794 161.767 17.6953 160.426 17.3047C159.02 16.888 157.75 16.4258 156.617 15.918C155.484 15.3971 154.514 14.8047 153.707 14.1406C152.9 13.4766 152.281 12.7148 151.852 11.8555C151.422 10.9961 151.207 10.013 151.207 8.90625C151.207 7.79948 151.435 6.77734 151.891 5.83984C152.346 4.90234 152.997 4.08854 153.844 3.39844C154.703 2.69531 155.725 2.14844 156.91 1.75781C158.095 1.36719 159.417 1.17188 160.875 1.17188C163.01 1.17188 164.82 1.58203 166.305 2.40234C167.802 3.20964 168.941 4.27083 169.723 5.58594C170.504 6.88802 170.895 8.28125 170.895 9.76562H167.145C167.145 8.69792 166.917 7.75391 166.461 6.93359C166.005 6.10026 165.315 5.44922 164.391 4.98047C163.466 4.4987 162.294 4.25781 160.875 4.25781C159.534 4.25781 158.427 4.45964 157.555 4.86328C156.682 5.26693 156.031 5.8138 155.602 6.50391C155.185 7.19401 154.977 7.98177 154.977 8.86719C154.977 9.46615 155.1 10.013 155.348 10.5078C155.608 10.9896 156.005 11.4388 156.539 11.8555C157.086 12.2721 157.776 12.6562 158.609 13.0078C159.456 13.3594 160.465 13.6979 161.637 14.0234C163.251 14.4792 164.645 14.987 165.816 15.5469C166.988 16.1068 167.952 16.7383 168.707 17.4414C169.475 18.1315 170.042 18.9193 170.406 19.8047C170.784 20.6771 170.973 21.6667 170.973 22.7734C170.973 23.9323 170.738 24.9805 170.27 25.918C169.801 26.8555 169.13 27.6562 168.258 28.3203C167.385 28.9844 166.337 29.4987 165.113 29.8633C163.902 30.2148 162.548 30.3906 161.051 30.3906C159.736 30.3906 158.44 30.2083 157.164 29.8438C155.901 29.4792 154.749 28.9323 153.707 28.2031C152.678 27.474 151.852 26.5755 151.227 25.5078C150.615 24.4271 150.309 23.1771 150.309 21.7578H154.059C154.059 22.7344 154.247 23.5742 154.625 24.2773C155.003 24.9674 155.517 25.5404 156.168 25.9961C156.832 26.4518 157.581 26.7904 158.414 27.0117C159.26 27.2201 160.139 27.3242 161.051 27.3242C162.366 27.3242 163.479 27.1419 164.391 26.7773C165.302 26.4128 165.992 25.8919 166.461 25.2148C166.943 24.5378 167.184 23.737 167.184 22.8125Z" stroke="white" stroke-width="2" mask="url(#path-1-outside-1_3_3)"/>
<path d="M190.934 22.8125C190.934 22.1484 190.829 21.5625 190.621 21.0547C190.426 20.5339 190.074 20.0651 189.566 19.6484C189.072 19.2318 188.382 18.8346 187.496 18.457C186.624 18.0794 185.517 17.6953 184.176 17.3047C182.77 16.888 181.5 16.4258 180.367 15.918C179.234 15.3971 178.264 14.8047 177.457 14.1406C176.65 13.4766 176.031 12.7148 175.602 11.8555C175.172 10.9961 174.957 10.013 174.957 8.90625C174.957 7.79948 175.185 6.77734 175.641 5.83984C176.096 4.90234 176.747 4.08854 177.594 3.39844C178.453 2.69531 179.475 2.14844 180.66 1.75781C181.845 1.36719 183.167 1.17188 184.625 1.17188C186.76 1.17188 188.57 1.58203 190.055 2.40234C191.552 3.20964 192.691 4.27083 193.473 5.58594C194.254 6.88802 194.645 8.28125 194.645 9.76562H190.895C190.895 8.69792 190.667 7.75391 190.211 6.93359C189.755 6.10026 189.065 5.44922 188.141 4.98047C187.216 4.4987 186.044 4.25781 184.625 4.25781C183.284 4.25781 182.177 4.45964 181.305 4.86328C180.432 5.26693 179.781 5.8138 179.352 6.50391C178.935 7.19401 178.727 7.98177 178.727 8.86719C178.727 9.46615 178.85 10.013 179.098 10.5078C179.358 10.9896 179.755 11.4388 180.289 11.8555C180.836 12.2721 181.526 12.6562 182.359 13.0078C183.206 13.3594 184.215 13.6979 185.387 14.0234C187.001 14.4792 188.395 14.987 189.566 15.5469C190.738 16.1068 191.702 16.7383 192.457 17.4414C193.225 18.1315 193.792 18.9193 194.156 19.8047C194.534 20.6771 194.723 21.6667 194.723 22.7734C194.723 23.9323 194.488 24.9805 194.02 25.918C193.551 26.8555 192.88 27.6562 192.008 28.3203C191.135 28.9844 190.087 29.4987 188.863 29.8633C187.652 30.2148 186.298 30.3906 184.801 30.3906C183.486 30.3906 182.19 30.2083 180.914 29.8438C179.651 29.4792 178.499 28.9323 177.457 28.2031C176.428 27.474 175.602 26.5755 174.977 25.5078C174.365 24.4271 174.059 23.1771 174.059 21.7578H177.809C177.809 22.7344 177.997 23.5742 178.375 24.2773C178.753 24.9674 179.267 25.5404 179.918 25.9961C180.582 26.4518 181.331 26.7904 182.164 27.0117C183.01 27.2201 183.889 27.3242 184.801 27.3242C186.116 27.3242 187.229 27.1419 188.141 26.7773C189.052 26.4128 189.742 25.8919 190.211 25.2148C190.693 24.5378 190.934 23.737 190.934 22.8125Z" stroke="white" stroke-width="2" mask="url(#path-1-outside-1_3_3)"/>
<path d="M217.594 26.9336V30H202.535V26.9336H217.594ZM203.297 1.5625V30H199.527V1.5625H203.297ZM215.602 13.7891V16.8555H202.535V13.7891H215.602ZM217.398 1.5625V4.64844H202.535V1.5625H217.398Z" stroke="white" stroke-width="2" mask="url(#path-1-outside-1_3_3)"/>
<path d="M239.508 26.9336V30H225.289V26.9336H239.508ZM226.031 1.5625V30H222.262V1.5625H226.031Z" stroke="white" stroke-width="2" mask="url(#path-1-outside-1_3_3)"/>
<path d="M247.867 1.5625V30H244.098V1.5625H247.867Z" stroke="white" stroke-width="2" mask="url(#path-1-outside-1_3_3)"/>
<path d="M276.598 1.5625V30H272.809L258.492 8.06641V30H254.723V1.5625H258.492L272.867 23.5547V1.5625H276.598Z" stroke="white" stroke-width="2" mask="url(#path-1-outside-1_3_3)"/>
<path d="M304.293 15.8398V26.25C303.941 26.7708 303.382 27.3568 302.613 28.0078C301.845 28.6458 300.784 29.2057 299.43 29.6875C298.089 30.1562 296.357 30.3906 294.234 30.3906C292.503 30.3906 290.908 30.0911 289.449 29.4922C288.004 28.8802 286.747 27.9948 285.68 26.8359C284.625 25.6641 283.805 24.2448 283.219 22.5781C282.646 20.8984 282.359 18.9974 282.359 16.875V14.668C282.359 12.5456 282.607 10.651 283.102 8.98438C283.609 7.31771 284.352 5.90495 285.328 4.74609C286.305 3.57422 287.503 2.6888 288.922 2.08984C290.341 1.47786 291.969 1.17188 293.805 1.17188C295.979 1.17188 297.796 1.54948 299.254 2.30469C300.725 3.04688 301.871 4.07552 302.691 5.39062C303.525 6.70573 304.059 8.20312 304.293 9.88281H300.523C300.354 8.85417 300.016 7.91667 299.508 7.07031C299.013 6.22396 298.303 5.54688 297.379 5.03906C296.454 4.51823 295.263 4.25781 293.805 4.25781C292.49 4.25781 291.35 4.4987 290.387 4.98047C289.423 5.46224 288.629 6.15234 288.004 7.05078C287.379 7.94922 286.91 9.03646 286.598 10.3125C286.298 11.5885 286.148 13.0273 286.148 14.6289V16.875C286.148 18.5156 286.337 19.9805 286.715 21.2695C287.105 22.5586 287.659 23.6589 288.375 24.5703C289.091 25.4688 289.944 26.1523 290.934 26.6211C291.936 27.0898 293.043 27.3242 294.254 27.3242C295.595 27.3242 296.682 27.2135 297.516 26.9922C298.349 26.7578 299 26.4844 299.469 26.1719C299.938 25.8464 300.296 25.5404 300.543 25.2539V18.8867H293.961V15.8398H304.293Z" stroke="white" stroke-width="2" mask="url(#path-1-outside-1_3_3)"/>
<path d="M329.117 13.7891V16.8555H313.727V13.7891H329.117ZM314.312 1.5625V30H310.543V1.5625H314.312ZM332.398 1.5625V30H328.648V1.5625H332.398Z" stroke="white" stroke-width="2" mask="url(#path-1-outside-1_3_3)"/>
</svg>
